<svg viewBox="0 0 770 503" fill="none" xmlns="http://www.w3.org/2000/svg">
<g id="card 1" clip-path="url(#clip0)">



<g id="cardPersonId">
<path id="Vector" d="M768.732 439.396H448.438C448.122 439.396 447.819 439.27 447.596 439.047C447.372 438.824 447.247 438.521 447.247 438.205C447.247 437.889 447.372 437.587 447.596 437.363C447.819 437.14 448.122 437.015 448.438 437.015H768.732C769.047 437.015 769.35 437.14 769.574 437.363C769.797 437.587 769.922 437.889 769.922 438.205C769.922 438.521 769.797 438.824 769.574 439.047C769.35 439.27 769.047 439.396 768.732 439.396V439.396Z" fill="#3F3D56"/>
<path id="Vector_2" d="M611 294C629.225 294 644 279.225 644 261C644 242.775 629.225 228 611 228C592.775 228 578 242.775 578 261C578 279.225 592.775 294 611 294Z" fill="#2F2E41"/>
<path id="Vector_3" d="M629.373 448.257L631.915 460.25L679.385 456.155L675.633 438.454L629.373 448.257Z" fill="#A0616A"/>
<path id="Vector_4" d="M625.679 485.741L617.692 448.047L632.255 444.961L637.157 468.091C637.975 471.953 637.226 475.983 635.073 479.293C632.921 482.603 629.542 484.922 625.679 485.741V485.741V485.741Z" fill="#2F2E41"/>
<path id="Vector_5" d="M599.634 447.617L594.291 458.651L549.187 443.295L557.072 427.01L599.634 447.617Z" fill="#A0616A"/>
<path id="Vector_6" d="M587.322 465.007L597.626 443.726L611.025 450.213L594.234 484.893C590.68 483.172 587.955 480.111 586.659 476.381C585.363 472.652 585.602 468.56 587.322 465.007V465.007Z" fill="#2F2E41"/>
<path id="Vector_7" d="M510.773 425.824C512.317 426.112 513.905 426.057 515.426 425.664C516.946 425.272 518.362 424.55 519.574 423.551C520.786 422.552 521.764 421.299 522.439 419.881C523.114 418.463 523.47 416.914 523.482 415.344L597.856 346.773L579.386 332.467L512.048 404.411C509.409 404.566 506.918 405.684 505.047 407.552C503.177 409.421 502.057 411.911 501.9 414.551C501.742 417.19 502.559 419.796 504.194 421.874C505.83 423.951 508.17 425.357 510.773 425.824V425.824Z" fill="#A0616A"/>
<path id="Vector_8" d="M611.858 297.49C625.423 297.49 636.419 286.494 636.419 272.929C636.419 259.364 625.423 248.368 611.858 248.368C598.294 248.368 587.297 259.364 587.297 272.929C587.297 286.494 598.294 297.49 611.858 297.49Z" fill="#A0616A"/>
<path d="M558 355L565 334L601 305C601 305 619 307 642 294L649.504 294.214C650.783 294.25 652.042 294.546 653.203 295.083C654.365 295.619 655.405 296.386 656.261 297.337C657.117 298.288 657.771 299.403 658.184 300.614C658.596 301.825 658.758 303.107 658.66 304.383C656.77 328.871 653.114 391.929 663.5 413.5C663.5 413.5 608.5 427.5 583.5 398.5C583.5 398.5 593.5 387.5 583.5 367.5L570.5 371.5L558 355Z" fill="#00C800"/>
<path id="Vector_9" d="M586.5 398.5C586.5 398.5 521.5 392.5 514.5 411.5C507.5 430.5 515.5 439.5 527.5 443.5C539.5 447.5 568.5 452.5 568.5 452.5L581.5 436.5L615.5 438.5C615.5 438.5 653.385 460.473 663.86 483.974C666.107 489.06 669.691 493.441 674.23 496.653C678.769 499.865 684.093 501.786 689.637 502.212C698.035 502.797 705.5 499.625 705.5 486.5C705.5 456.5 663.5 413.5 663.5 413.5L586.5 398.5Z" fill="#2F2E41"/>
<path id="Vector_10" d="M537 428C537 428 554 423 581 436Z" fill="#2F2E41"/>
<path id="Vector_11" d="M587.357 257.266C596.948 263.121 607.762 266.684 618.956 267.678L615.625 263.687C618.05 264.583 620.602 265.09 623.186 265.188C624.48 265.226 625.764 264.959 626.936 264.411C628.108 263.862 629.136 263.046 629.936 262.029C630.589 260.973 630.977 259.774 631.067 258.535C631.157 257.296 630.945 256.054 630.451 254.914C629.436 252.641 627.856 250.665 625.862 249.176C622.327 246.379 618.155 244.501 613.718 243.708C609.28 242.915 604.716 243.232 600.431 244.631C597.492 245.509 594.86 247.198 592.836 249.503C591.841 250.664 591.15 252.054 590.825 253.548C590.5 255.043 590.551 256.594 590.973 258.064" fill="#2F2E41"/>
<path id="Vector_12" d="M614.106 231.663C606.36 223.808 596.985 217.746 586.643 213.904C580.004 211.445 572.779 209.925 565.838 211.322C558.898 212.718 552.334 217.52 550.398 224.33C548.814 229.898 550.449 235.893 552.906 241.135C555.364 246.377 558.644 251.238 560.631 256.675C562.659 262.223 563.268 268.19 562.405 274.033C561.542 279.876 559.232 285.412 555.687 290.136C552.142 294.861 547.473 298.625 542.104 301.088C536.735 303.55 530.836 304.633 524.942 304.237C531.761 305.152 538.047 308.356 544.713 310.062C551.378 311.768 559.246 311.652 564.199 306.877C569.44 301.824 569.545 293.61 569.291 286.334C568.915 275.519 568.538 264.704 568.161 253.889C567.969 248.374 567.805 242.682 569.794 237.534C571.783 232.386 576.511 227.878 582.029 227.925C586.212 227.961 589.914 230.494 593.268 232.993C596.622 235.492 600.172 238.158 604.338 238.529C608.505 238.901 613.261 235.818 612.95 231.647" fill="#2F2E41"/>
<path id="Vector_13" d="M645.5 295.5C646.664 294.983 647.921 294.706 649.195 294.686C650.469 294.667 651.733 294.905 652.913 295.387C654.092 295.868 655.162 296.583 656.059 297.489C656.955 298.394 657.659 299.472 658.128 300.656L675.5 344.5L648.5 362.5L645.5 295.5Z" fill="#00C800"/>
<path id="Vector_14" d="M623.232 394.888C623.786 394.892 624.338 394.94 624.884 395.031L658.839 358.885L655.377 347.345L672.11 339.844L682.496 365.232L633.644 404.091C633.907 406.206 633.519 408.351 632.533 410.24C631.547 412.13 630.009 413.674 628.124 414.668C626.238 415.662 624.095 416.059 621.979 415.805C619.863 415.552 617.874 414.66 616.277 413.248C614.68 411.837 613.551 409.973 613.039 407.904C612.528 405.835 612.658 403.659 613.413 401.666C614.168 399.673 615.512 397.957 617.266 396.746C619.02 395.536 621.101 394.888 623.232 394.888H623.232Z" fill="#A0616A"/>
</g>




<g id="cardCardId">
<path id="Vector_15" d="M140 106.5H72C69.6139 106.497 67.3263 105.548 65.6391 103.861C63.9519 102.174 63.0028 99.8861 63 97.5V41.5C63.0028 39.1139 63.9519 36.8263 65.6391 35.1391C67.3263 33.4519 69.6139 32.5027 72 32.5H140C142.386 32.5027 144.674 33.4517 146.361 35.139C148.048 36.8262 148.997 39.1138 149 41.5V97.5C148.997 99.8861 148.048 102.174 146.361 103.861C144.674 105.548 142.386 106.497 140 106.5ZM72 34.5C70.1441 34.502 68.3649 35.2402 67.0526 36.5525C65.7402 37.8648 65.0021 39.6441 65 41.5V97.5C65.0021 99.3558 65.7402 101.135 67.0526 102.447C68.3649 103.76 70.1441 104.498 72 104.5H140C141.856 104.498 143.635 103.76 144.947 102.447C146.26 101.135 146.998 99.3558 147 97.5V41.5C146.998 39.6441 146.26 37.8649 144.947 36.5526C143.635 35.2403 141.856 34.5021 140 34.5H72Z" fill="#3F3D56"/>
<path id="Vector_16" d="M59.5 127.5C57.7761 127.5 56.1228 128.185 54.9038 129.404C53.6848 130.623 53 132.276 53 134C53 135.724 53.6848 137.377 54.9038 138.596C56.1228 139.815 57.7761 140.5 59.5 140.5H388.5C390.224 140.5 391.877 139.815 393.096 138.596C394.315 137.377 395 135.724 395 134C395 132.276 394.315 130.623 393.096 129.404C391.877 128.185 390.224 127.5 388.5 127.5H59.5Z" fill="#E6E6E6"/>
<path id="Vector_17" d="M170.5 59.5C168.776 59.5 167.123 60.1848 165.904 61.4038C164.685 62.6228 164 64.2761 164 66C164 67.7239 164.685 69.3772 165.904 70.5962C167.123 71.8151 168.776 72.5 170.5 72.5H311.5C313.224 72.5 314.877 71.8151 316.096 70.5962C317.315 69.3772 318 67.7239 318 66C318 64.2761 317.315 62.6228 316.096 61.4038C314.877 60.1848 313.224 59.5 311.5 59.5H170.5Z" fill="#00C800"/>
<path id="Vector_18" d="M170.5 93.5C168.776 93.5 167.123 94.1848 165.904 95.4038C164.685 96.6228 164 98.2761 164 100C164 101.724 164.685 103.377 165.904 104.596C167.123 105.815 168.776 106.5 170.5 106.5H385.5C387.224 106.5 388.877 105.815 390.096 104.596C391.315 103.377 392 101.724 392 100C392 98.2761 391.315 96.6228 390.096 95.4038C388.877 94.1848 387.224 93.5 385.5 93.5H170.5Z" fill="#00C800"/>
<path id="Vector_19" d="M59.5 161.5C57.7761 161.5 56.1228 162.185 54.9038 163.404C53.6848 164.623 53 166.276 53 168C53 169.724 53.6848 171.377 54.9038 172.596C56.1228 173.815 57.7761 174.5 59.5 174.5H388.5C390.224 174.5 391.877 173.815 393.096 172.596C394.315 171.377 395 169.724 395 168C395 166.276 394.315 164.623 393.096 163.404C391.877 162.185 390.224 161.5 388.5 161.5H59.5Z" fill="#E6E6E6"/>
<path id="Vector_20" d="M59.5 195.5C57.7761 195.5 56.1228 196.185 54.9038 197.404C53.6848 198.623 53 200.276 53 202C53 203.724 53.6848 205.377 54.9038 206.596C56.1228 207.815 57.7761 208.5 59.5 208.5H388.5C390.224 208.5 391.877 207.815 393.096 206.596C394.315 205.377 395 203.724 395 202C395 200.276 394.315 198.623 393.096 197.404C391.877 196.185 390.224 195.5 388.5 195.5H59.5Z" fill="#E6E6E6"/>
<path id="Vector_21" d="M105.196 97.4356C120.552 97.4356 133 84.9872 133 69.6313C133 54.2755 120.552 41.8271 105.196 41.8271C89.8399 41.8271 77.3915 54.2755 77.3915 69.6313C77.3915 84.9872 89.8399 97.4356 105.196 97.4356Z" fill="#CCCCCC"/>
<path id="Vector_22" d="M105.919 100.376C117.348 100.376 126.613 91.1112 126.613 79.6823C126.613 68.2533 117.348 58.9883 105.919 58.9883C94.4899 58.9883 85.2249 68.2533 85.2249 79.6823C85.2249 91.1112 94.4899 100.376 105.919 100.376Z" fill="#E6E6E6"/>
<path id="Vector_23" d="M85.2749 66.4852C93.3566 71.4186 102.468 74.4206 111.899 75.2578L109.092 71.8951C111.136 72.6506 113.286 73.0776 115.463 73.1601C116.553 73.1917 117.635 72.9674 118.623 72.5051C119.611 72.0429 120.476 71.3556 121.15 70.4984C121.7 69.6082 122.027 68.5981 122.103 67.5543C122.179 66.5104 122.001 65.4637 121.584 64.5035C120.729 62.5884 119.398 60.9239 117.718 59.6686C114.739 57.3124 111.224 55.7297 107.485 55.0616C103.747 54.3934 99.9011 54.6606 96.2909 55.8392C93.8145 56.5793 91.5966 58.002 89.8914 59.9443C89.0531 60.9227 88.4709 62.0939 88.197 63.3528C87.9231 64.6118 87.9661 65.9191 88.3221 67.1573" fill="#CCCCCC"/>
<path id="Vector_24" d="M439 241H9C6.61388 240.997 4.32625 240.048 2.63901 238.361C0.951762 236.674 0.00268648 234.386 0 232V8.99997C0.00277099 6.61387 0.951872 4.32631 2.6391 2.63908C4.32633 0.951857 6.6139 0.00274048 9 -3.05176e-05H439C441.386 0.0026586 443.674 0.951748 445.361 2.63899C447.048 4.32624 447.997 6.61385 448 8.99997V232C447.997 234.386 447.048 236.674 445.361 238.361C443.674 240.048 441.386 240.997 439 241V241ZM9 1.99997C7.14412 2.00205 5.36486 2.74022 4.05255 4.05252C2.74025 5.36482 2.00208 7.14409 2 8.99997V232C2.00216 233.856 2.74037 235.635 4.05266 236.947C5.36494 238.26 7.14415 238.998 9 239H439C440.856 238.998 442.635 238.26 443.947 236.947C445.26 235.635 445.998 233.856 446 232V8.99997C445.998 7.14412 445.26 5.36491 443.947 4.05263C442.635 2.74034 440.856 2.00213 439 1.99997H9Z" fill="#3F3D56"/>
</g>
<g id="cardLineId">
<path id="Vector_25" d="M617.205 398.612C600.455 388.726 581.106 384.137 561.7 385.45C542.294 386.763 523.739 393.916 508.472 405.968C507.359 407.049 506.117 407.989 504.774 408.768C503.584 409.286 502.164 408.858 500.975 408.558C493.107 406.58 484.851 403.536 479.059 397.623C474.058 392.518 470.561 384.703 473.08 377.588C474.147 374.888 476.034 372.59 478.476 371.02C480.918 369.449 483.791 368.685 486.69 368.835C493.619 369.454 496.454 377.148 494.941 383.175C493.152 390.299 486.221 395.063 479.639 397.351C467.509 401.566 453.441 398.627 443.416 390.783C438.114 386.671 434.097 381.13 431.838 374.812C429.086 367.034 428.915 358.601 430.344 350.531C433.33 333.658 442.477 319.18 451.064 304.68C459.057 291.183 467.041 276.724 468.042 260.739C468.838 248.021 465.504 233.972 456.02 224.925C453.779 222.787 451.236 220.99 448.473 219.591C446.754 218.721 445.234 221.308 446.959 222.181C459.225 228.393 464.681 242.166 465.121 255.297C465.669 271.674 458.173 286.559 450.128 300.352C441.289 315.507 431.405 330.388 427.811 347.85C426.106 356.136 425.83 364.833 428.13 373.036C430.053 380.027 433.921 386.329 439.283 391.208C449.284 400.238 463.771 404.349 476.962 401.251C484.04 399.589 491.115 395.735 495.262 389.615C499.287 383.674 499.69 374.931 494.523 369.492C489.949 364.678 482.603 365.001 477.252 368.289C471.103 372.067 468.43 378.802 469.546 385.839C470.793 393.699 476.305 400.305 482.87 404.466C486.608 406.765 490.616 408.591 494.804 409.903C496.894 410.613 499.02 411.209 501.175 411.688C502.595 412.083 504.097 412.082 505.518 411.688C506.874 411.091 508.113 410.259 509.179 409.23C510.967 407.758 512.819 406.369 514.72 405.047C518.403 402.489 522.262 400.193 526.267 398.176C538.25 392.118 551.403 388.728 564.822 388.24C578.24 387.752 591.605 390.178 603.997 395.35C608.028 397.022 611.936 398.978 615.691 401.202C616.034 401.387 616.435 401.432 616.809 401.326C617.184 401.221 617.503 400.975 617.7 400.639C617.896 400.303 617.954 399.903 617.862 399.525C617.77 399.147 617.534 398.82 617.205 398.612V398.612Z" fill="#3F3D56"/>
</g>
</g>
<defs>
<clipPath id="clip0">
<rect width="769.922" height="502.278" fill="white"/>
</clipPath>
</defs>
</svg>
