<svg fill="#00c800" height="80px" viewBox="0 0 512 512" width="80px"><g><path d="M476,32H36A28.031,28.031,0,0,0,8,60V380a28.031,28.031,0,0,0,28,28H196.9l-10.67,32H168a8,8,0,0,0-8,8v16H104a8,8,0,0,0,0,16H376a8,8,0,0,0,0-16H352V448a8,8,0,0,0-8-8H325.77L315.1,408H476a28.031,28.031,0,0,0,28-28V60A28.031,28.031,0,0,0,476,32ZM336,456v8H176v-8ZM203.1,440l10.67-32h84.46l10.67,32ZM488,380a12.01,12.01,0,0,1-12,12H36a12.01,12.01,0,0,1-12-12V360H488Zm0-36H24V60A12.01,12.01,0,0,1,36,48H476a12.01,12.01,0,0,1,12,12Z" /><path d="M408,464h-8a8,8,0,0,0,0,16h8a8,8,0,0,0,0-16Z" /><path d="M446.07,186.79c-.86-1.01-21.6-25-55.28-49.28C345.85,105.12,299.24,88,256,88s-89.85,17.12-134.79,49.51c-33.68,24.28-54.42,48.27-55.28,49.28a8.005,8.005,0,0,0,0,10.42c.86,1.01,21.6,25,55.28,49.28C166.15,278.88,212.76,296,256,296s89.85-17.12,134.79-49.51c33.68-24.28,54.42-48.27,55.28-49.28A8.005,8.005,0,0,0,446.07,186.79ZM256,280c-50.23,0-95.76-25.16-125.11-46.26a350.113,350.113,0,0,1-48.03-41.73C101.55,172.37,172.66,104,256,104c50.23,0,95.76,25.16,125.11,46.26A348.608,348.608,0,0,1,429.14,192C410.45,211.63,339.34,280,256,280Z" /><path d="M256,120a72,72,0,1,0,72,72A72.083,72.083,0,0,0,256,120Zm0,128a56,56,0,1,1,56-56A56.062,56.062,0,0,1,256,248Z" /><path d="M256,176a24,24,0,1,0-24,24A24.027,24.027,0,0,0,256,176Zm-32,0a8,8,0,1,1,8,8A8.009,8.009,0,0,1,224,176Z" /></g></svg>